# xmcd CD database file
#
# Track frame offsets:
#	182
#	14005
#	24705
#	36547
#	46535
#	58850
#	70405
#	80177
#	91417
#	100987
#	111722
#	127035
#	155385
#	166095
#	180210
#	193002
#	209077
#	225795
#	236762
#
# Disc length: 3287 seconds
#
# Revision: 0
# Processed by: cddbd v1.4PL0 Copyright (c) Steve Scherf et al.
# Submitted via: CDex 1.50
#
DISCID=0c0cd513
DTITLE=Original - Rhythm and Blues
DYEAR=1994
DGENRE=Blues
TTITLE0=Wilson Pickett - It's too late
TTITLE1=Wilson Pickett - Baby call on me
TTITLE2=Wilson Pickett - If you need me
TTITLE3=Wilson Pickett - I'm gonna love you
TTITLE4=Gladys Gnight - Letter full of tears
TTITLE5=Gladys Gnight - What shall I do
TTITLE6=Ike and Tina Turner - Beauty is just skin deep
TTITLE7=Ike and Tina Turner - Blue over you
TTITLE8=Ike and Tina Turner - Too hot to hold
TTITLE9=Ike and Tina Turner - You got what you wanted
TTITLE10=Jambalaya
TTITLE11=So long
TTITLE12=Fats Domino - Blue Monday
TTITLE13=Wam tender love
TTITLE14=Percy Sledge - When a man love a woman
TTITLE15=Just out of reach
TTITLE16=Percy Sledge - Make it good
TTITLE17=The Drifters - Ruby Baby
TTITLE18=Gladys Knight and The Pips - Operator
EXTD=YEAR: 1994
EXTT0=
EXTT1=
EXTT2=
EXTT3=
EXTT4=
EXTT5=
EXTT6=
EXTT7=
EXTT8=
EXTT9=
EXTT10=
EXTT11=
EXTT12=
EXTT13=
EXTT14=
EXTT15=
EXTT16=
EXTT17=
EXTT18=
PLAYORDER=
